<?xml version="1.0" encoding="UTF-8" standalone="no"?>
<!-- Created with Inkscape (http://www.inkscape.org/) -->

<svg
   version="1.1"
   id="svg2"
   xml:space="preserve"
   width="630.74829"
   height="369.79269"
   viewBox="0 0 630.74829 369.7927"
   sodipodi:docname="Zesty_logo.svg"
   inkscape:version="1.1.1 (3bf5ae0d25, 2021-09-20)"
   xmlns:inkscape="http://www.inkscape.org/namespaces/inkscape"
   xmlns:sodipodi="http://sodipodi.sourceforge.net/DTD/sodipodi-0.dtd"
   xmlns="http://www.w3.org/2000/svg"
   xmlns:svg="http://www.w3.org/2000/svg"><defs
     id="defs6"><clipPath
       clipPathUnits="userSpaceOnUse"
       id="clipPath16"><path
         d="M 0,512 H 512 V 0 H 0 Z"
         id="path14" /></clipPath><pattern
       patternTransform="translate(16519.985,-15727.805)"
       patternUnits="userSpaceOnUse"
       x="0"
       y="0"
       width="39.1"
       height="39.1"
       id="pattern26"><path
         d="m 0,0 39.1,0 0,39.1 L 0,39.1 0,0 Z"
         style="fill:#0c1630;fill-opacity:1;fill-rule:nonzero;stroke:none"
         id="path24" /></pattern><pattern
       patternTransform="translate(16493.285,-15714.105)"
       patternUnits="userSpaceOnUse"
       x="0"
       y="0"
       width="39.1"
       height="39.1"
       id="pattern32"><path
         d="m 0,0 39.1,0 0,39.1 L 0,39.1 0,0 Z"
         style="fill:#0c1630;fill-opacity:1;fill-rule:nonzero;stroke:none"
         id="path30" /></pattern><pattern
       patternTransform="translate(16519.985,-15727.805)"
       patternUnits="userSpaceOnUse"
       x="0"
       y="0"
       width="39.1"
       height="39.1"
       id="pattern40"><path
         d="m 0,0 39.1,0 0,39.1 L 0,39.1 0,0 Z"
         style="fill:#0c1630;fill-opacity:1;fill-rule:nonzero;stroke:none"
         id="path38" /></pattern><pattern
       patternTransform="translate(16519.985,-15727.805)"
       patternUnits="userSpaceOnUse"
       x="0"
       y="0"
       width="39.1"
       height="39.1"
       id="pattern48"><path
         d="m 0,0 39.1,0 0,39.1 L 0,39.1 0,0 Z"
         style="fill:#0c1630;fill-opacity:1;fill-rule:nonzero;stroke:none"
         id="path46" /></pattern><pattern
       patternTransform="translate(16519.985,-15727.805)"
       patternUnits="userSpaceOnUse"
       x="0"
       y="0"
       width="39.1"
       height="39.1"
       id="pattern56"><path
         d="m 0,0 39.1,0 0,39.1 L 0,39.1 0,0 Z"
         style="fill:#0c1630;fill-opacity:1;fill-rule:nonzero;stroke:none"
         id="path54" /></pattern><pattern
       patternTransform="translate(16519.985,-15727.805)"
       patternUnits="userSpaceOnUse"
       x="0"
       y="0"
       width="39.1"
       height="39.1"
       id="pattern64"><path
         d="m 0,0 39.1,0 0,39.1 L 0,39.1 0,0 Z"
         style="fill:#0c1630;fill-opacity:1;fill-rule:nonzero;stroke:none"
         id="path62" /></pattern><pattern
       patternTransform="translate(16519.985,-15727.805)"
       patternUnits="userSpaceOnUse"
       x="0"
       y="0"
       width="39.1"
       height="39.1"
       id="pattern72"><path
         d="m 0,0 39.1,0 0,39.1 L 0,39.1 0,0 Z"
         style="fill:#0c1630;fill-opacity:1;fill-rule:nonzero;stroke:none"
         id="path70" /></pattern><linearGradient
       x1="0"
       y1="0"
       x2="1"
       y2="0"
       gradientUnits="userSpaceOnUse"
       gradientTransform="matrix(79.549385,79.549385,-79.549385,79.549385,136.61172,147.01607)"
       spreadMethod="pad"
       id="linearGradient98"><stop
         style="stop-opacity:1;stop-color:#ffcc33"
         offset="0"
         id="stop88" /><stop
         style="stop-opacity:1;stop-color:#ffcc33"
         offset="0"
         id="stop90" /><stop
         style="stop-opacity:1;stop-color:#fcba34"
         offset="0.1973"
         id="stop92" /><stop
         style="stop-opacity:1;stop-color:#f28a37"
         offset="0.5942"
         id="stop94" /><stop
         style="stop-opacity:1;stop-color:#e8543b"
         offset="1"
         id="stop96" /></linearGradient><clipPath
       clipPathUnits="userSpaceOnUse"
       id="clipPath108"><path
         d="M 0,512 H 512 V 0 H 0 Z"
         id="path106" /></clipPath></defs><sodipodi:namedview
     id="namedview4"
     pagecolor="#ffffff"
     bordercolor="#666666"
     borderopacity="1.0"
     inkscape:pageshadow="2"
     inkscape:pageopacity="0.0"
     inkscape:pagecheckerboard="0"
     showgrid="false"
     fit-margin-top="0"
     fit-margin-left="0"
     fit-margin-right="0"
     fit-margin-bottom="0"
     inkscape:zoom="1.2070312"
     inkscape:cx="315.23626"
     inkscape:cy="262.62784"
     inkscape:window-width="1920"
     inkscape:window-height="1010"
     inkscape:window-x="-6"
     inkscape:window-y="-6"
     inkscape:window-maximized="1"
     inkscape:current-layer="g8" /><g
     id="g8"
     inkscape:groupmode="layer"
     inkscape:label="zesty_logo_variations"
     transform="matrix(1.3333333,0,0,-1.3333333,-25.959053,526.22935)"><g
       id="g973"><g
         id="g10"><g
           id="g12"
           clip-path="url(#clipPath16)"><g
             id="g18"
             transform="translate(302.3146,307.5052)"><path
               d="m 0,0 c -2.731,0 -5.462,-0.124 -8.193,-0.497 -7.448,24.207 -29.793,40.717 -55.117,40.841 -6.331,0 -12.537,-0.993 -18.496,-3.103 -14.772,31.903 -49.655,49.158 -83.916,41.71 -34.262,-7.448 -58.717,-37.986 -58.717,-73.117 0,-6.082 0.745,-12.165 2.235,-17.999 -32.648,-4.966 -55.986,-34.262 -53.628,-67.282 2.359,-33.021 29.793,-58.469 62.814,-58.717 H 0 c 38.11,0 69.02,30.91 69.02,69.02 C 69.02,-31.034 38.11,0 0,0"
               style="fill:#ffffff;fill-opacity:1;fill-rule:nonzero;stroke:none"
               id="path20" /></g><g
             id="g22"
             transform="translate(152.3576,381.2424)"><path
               d="m 0,0 c -4.841,0 -9.559,-0.497 -14.4,-1.614 -30.91,-6.827 -53.379,-34.758 -53.379,-66.413 0,-5.462 0.745,-11.048 1.987,-16.386 0.496,-1.862 0.124,-3.848 -0.869,-5.462 -1.118,-1.614 -2.731,-2.731 -4.718,-2.979 -28.923,-4.345 -49.902,-30.662 -47.792,-59.958 2.11,-29.172 26.813,-52.262 56.11,-52.386 h 213.018 c 34.386,0 62.317,27.931 62.317,62.317 0,34.386 -27.931,62.192 -62.193,62.192 -2.358,0 -4.965,-0.124 -7.448,-0.496 -3.228,-0.373 -6.331,1.613 -7.324,4.717 -6.579,21.476 -26.069,35.875 -48.538,35.999 -5.462,0 -11.048,-0.868 -16.261,-2.73 -3.352,-1.118 -6.952,0.372 -8.442,3.599 C 50.648,-15.145 25.945,0 0,0 M 149.957,-218.853 H -63.061 c -36.372,0.124 -67.034,28.676 -69.641,65.048 -2.483,33.889 20.11,64.675 52.386,72.992 -0.621,4.221 -0.993,8.441 -0.993,12.662 0,18.496 6.33,36.744 17.999,51.144 11.669,14.4 27.931,24.579 46.055,28.552 18.124,3.972 37.241,1.613 53.875,-6.58 14.897,-7.324 27.186,-19.117 35.131,-33.641 4.965,1.242 9.931,1.862 15.02,1.738 26.566,0 50.028,-16.013 59.71,-40.344 1.242,0 2.359,0.124 3.6,0.124 41.834,0 75.848,-34.013 75.848,-75.847 -0.125,-41.71 -34.138,-75.848 -75.972,-75.848"
               style="fill:url(#pattern26);fill-opacity:1;fill-rule:nonzero;stroke:none"
               id="path28" /></g><path
             d="m 198.909,199.258 h 59.586 v -27.31 h -59.586 z"
             style="fill:url(#pattern32);fill-opacity:1;fill-rule:nonzero;stroke:none"
             id="path34" /><g
             id="g36"
             transform="translate(258.2461,140.9139)"><path
               d="m 0,0 h -122.895 c -4.221,0 -8.069,2.607 -9.807,6.455 -1.614,3.973 -0.745,8.441 2.234,11.545 l 63.31,63.309 -58.592,29.297 c -2.98,1.489 -5.214,4.344 -5.711,7.696 -0.496,3.352 0.497,6.704 2.98,9.186 l 40.22,40.221 c 4.096,4.096 10.8,4.096 14.896,0 L 1.986,92.358 c 4.097,-4.097 4.097,-10.8 0,-14.897 L -32.524,42.951 5.462,19.614 C 9.434,17.131 11.421,12.29 10.055,7.696 8.814,3.103 4.717,0 0,0"
               style="fill:url(#pattern40);fill-opacity:1;fill-rule:nonzero;stroke:none"
               id="path42" /></g><g
             id="g44"
             transform="translate(276.3701,142.6518)"><path
               d="m 0,0 c -11.917,0 -22.593,3.724 -31.034,10.8 -9.186,7.696 -14.772,18.993 -15.765,31.779 -0.994,12.662 2.731,24.579 10.427,33.765 7.821,9.31 19.365,15.021 32.4,16.014 12.413,0.993 24.206,-2.855 33.144,-10.924 8.814,-7.821 14.276,-19.117 15.269,-31.779 0.248,-2.483 0.248,-4.842 0.124,-7.076 -0.248,-3.724 -1.986,-7.076 -4.717,-9.435 0.745,-1.117 1.365,-2.482 1.738,-3.848 0.993,-3.476 0.248,-7.2 -1.738,-10.179 C 32.027,7.945 19.986,1.366 4.841,0.248 3.228,0.124 1.614,0 0,0"
               style="fill:url(#pattern48);fill-opacity:1;fill-rule:nonzero;stroke:none"
               id="path50" /></g><g
             id="g52"
             transform="translate(339.928,142.5277)"><path
               d="m 0,0 c -17.007,0 -30.289,7.076 -37.489,19.862 -3.352,5.958 -1.242,13.407 4.717,16.882 l 4.469,2.607 c -4.841,4.593 -8.317,11.173 -8.317,20.483 0,19.241 15.268,32.772 37.117,32.772 14.027,0 26.441,-6.331 34.013,-17.379 1.986,-2.855 2.607,-6.455 1.862,-9.807 -0.869,-3.476 -3.103,-6.331 -6.083,-8.069 L 28.055,56.11 C 34.013,51.268 38.731,44.068 38.731,32.772 38.731,13.158 23.089,0 0,0"
               style="fill:url(#pattern56);fill-opacity:1;fill-rule:nonzero;stroke:none"
               id="path58" /></g><g
             id="g60"
             transform="translate(397.5274,143.8932)"><path
               d="m 0,0 c -8.938,0 -18.869,1.614 -26.069,8.069 -8.565,7.82 -9.558,19.241 -9.558,27.186 v 42.579 c 0,4.717 1.738,9.186 4.965,12.662 l 8.938,9.682 c 2.607,2.855 6.455,4.593 10.428,4.593 h 4.841 c 6.703,0 12.165,-5.462 12.165,-12.041 v -3.476 h 0.745 c 7.324,0 13.283,-5.958 13.283,-13.282 V 61.944 C 19.738,54.62 13.779,48.662 6.455,48.662 H 5.834 v -8.814 h 1.49 c 3.228,0.124 6.455,-0.993 8.814,-3.228 2.358,-2.234 3.724,-5.338 3.724,-8.565 V 12.29 C 19.862,6.083 15.269,0.993 9.062,0.497 6.207,0.248 3.103,0 0,0"
               style="fill:url(#pattern64);fill-opacity:1;fill-rule:nonzero;stroke:none"
               id="path66" /></g><g
             id="g68"
             transform="translate(421.8582,224.2095)"><path
               d="m 0,0 v 0 c 0.124,0 0,0 0,0 m 36,-37.986 v 0 c 0,-0.124 0,0 0,0 M 1.986,-106.882 h -2.731 c -5.958,0.249 -10.551,5.09 -10.551,11.049 v 17.999 c 0,5.835 4.593,10.676 10.551,11.049 h 0.373 c 2.855,0 4.22,0.248 4.965,0.993 l -24.082,57.599 c -1.614,3.848 -1.242,8.193 1.117,11.669 2.358,3.476 6.207,5.586 10.303,5.586 h 19.241 c 4.469,0 8.442,-2.607 10.179,-6.703 L 21.6,1.862 25.696,-9.559 29.048,1.365 c 1.49,4.718 5.71,7.821 10.552,7.821 h 18.744 c 3.973,0 7.821,-1.986 10.055,-5.214 2.359,-3.227 2.855,-7.448 1.614,-11.296 L 47.793,-70.51 C 39.227,-94.964 24.207,-106.882 1.986,-106.882"
               style="fill:url(#pattern72);fill-opacity:1;fill-rule:nonzero;stroke:none"
               id="path74" /></g></g></g><g
         id="g76"><g
           id="g78"><g
             id="g84"><g
               id="g86"><path
                 d="m 139.324,261.202 70.137,-35.13 c 0.372,-0.124 0.62,-0.497 0.62,-0.87 v 0 c 0.124,-0.372 -0.124,-0.744 -0.372,-1.116 v 0 l -71.503,-71.504 h 115.447 l -45.434,28.179 c -0.372,0.249 -0.496,0.497 -0.621,0.87 v 0 c 0,0.372 0.125,0.744 0.373,0.992 v 0 l 43.075,43.076 -73.613,73.613 z"
                 style="fill:url(#linearGradient98);stroke:none"
                 id="path100" /></g></g></g></g><g
         id="g102"><g
           id="g104"
           clip-path="url(#clipPath108)"><g
             id="g110"
             transform="translate(290.5216,196.5271)"><path
               d="m 0,0 c -0.248,-0.497 -0.745,-0.745 -1.366,-0.745 l -27.806,-2.234 h -0.124 c -0.497,0 -0.993,0.248 -1.242,0.62 -0.372,0.373 -0.496,0.993 -0.372,1.49 1.614,7.2 6.952,11.545 14.896,12.165 C -8.441,11.917 -2.607,8.317 0.124,1.614 0.372,0.993 0.248,0.497 0,0 m 18.62,-10.552 c 0.125,1.738 0.125,3.6 0,5.462 -0.744,9.559 -4.717,18 -11.296,23.835 -5.834,5.213 -13.407,8.069 -21.6,8.069 -0.993,0 -1.862,0 -2.855,-0.125 -9.807,-0.744 -18.496,-4.965 -24.206,-11.917 -5.711,-6.703 -8.442,-15.765 -7.697,-25.199 0.745,-9.559 4.841,-18 11.545,-23.711 7.076,-5.958 16.51,-8.689 27.186,-7.82 11.669,0.869 20.482,5.586 26.192,13.903 0.125,0.248 0.125,0.373 0.125,0.497 0,0.124 -0.125,0.248 -0.373,0.372 l -13.779,6.579 c -0.248,0.124 -0.496,0 -0.745,-0.124 -2.979,-3.103 -7.572,-5.089 -12.413,-5.462 -8.69,-0.621 -14.649,2.111 -17.876,8.193 -0.248,0.497 -0.248,1.117 0,1.614 0.248,0.497 0.745,0.745 1.365,0.869 l 44.814,3.476 c 0.993,0 1.613,0.745 1.613,1.489"
               style="fill:#ffffff;fill-opacity:1;fill-rule:nonzero;stroke:none"
               id="path112" /></g><g
             id="g114"
             transform="translate(339.928,154.3207)"><path
               d="m 0,0 c 13.034,0 26.938,5.462 26.938,20.979 0,15.145 -13.035,18.621 -22.593,21.103 -5.959,1.614 -10.676,2.855 -10.676,6.455 0,2.483 1.862,4.966 6.952,4.966 3.972,0 6.951,-1.614 9.186,-5.09 0.124,-0.248 0.496,-0.372 0.745,-0.248 l 14.027,7.572 c 0.248,0.124 0.248,0.249 0.248,0.373 0,0.124 0,0.248 -0.124,0.496 -5.338,7.821 -14.027,12.166 -24.206,12.166 -12.538,0 -25.324,-6.455 -25.324,-20.979 0,-14.028 13.034,-17.628 22.468,-20.235 5.959,-1.613 10.8,-2.979 10.8,-6.579 0,-1.986 -1.117,-5.462 -8.565,-5.462 -5.586,0 -9.683,2.359 -11.917,6.952 -0.124,0.248 -0.248,0.248 -0.373,0.248 h -0.124 c -0.124,0 -0.124,0 -0.248,-0.124 L -27.062,14.524 C -27.31,14.4 -27.434,14.027 -27.31,13.779 -21.972,4.717 -12.91,0 0,0"
               style="fill:#ffffff;fill-opacity:1;fill-rule:nonzero;stroke:none"
               id="path116" /></g><g
             id="g118"
             transform="translate(405.348,156.1827)"><path
               d="m 0,0 v 15.765 l -0.124,0.125 c -5.586,-0.249 -9.683,0 -12.041,2.234 -1.242,1.241 -1.862,2.855 -1.862,4.965 v 22.593 c 0,1.366 1.117,2.607 2.606,2.607 h 9.931 c 0.869,0 1.49,0.621 1.49,1.49 v 14.027 c 0,0.869 -0.621,1.49 -1.49,1.49 h -10.675 c -0.993,0 -1.738,0.745 -1.738,1.738 l -0.124,13.531 c 0,0.248 -0.249,0.372 -0.373,0.372 h -4.841 c -0.621,0 -1.366,-0.248 -1.738,-0.745 l -8.938,-9.682 c -1.117,-1.242 -1.862,-2.98 -1.862,-4.718 V 23.214 c 0,-9.062 1.862,-14.897 5.71,-18.497 C -21.103,0.248 -12.91,-1.241 0,0"
               style="fill:#ffffff;fill-opacity:1;fill-rule:nonzero;stroke:none"
               id="path120" /></g><g
             id="g122"
             transform="translate(458.4785,157.4241)"><path
               d="m 0,0 22.22,63.186 c 0.125,0.248 0,0.496 -0.124,0.496 -0.124,0.124 -0.248,0.248 -0.496,0.248 H 3.476 L -8.565,24.703 c -0.249,-0.745 -0.869,-1.117 -1.614,-1.241 -0.745,0 -1.366,0.496 -1.614,1.117 l -14.276,39.227 h -18.744 c -0.249,0 -0.497,-0.248 -0.497,-0.248 -0.124,-0.124 -0.124,-0.248 0,-0.497 l 25.821,-61.82 c 0.124,-0.372 0.124,-0.869 0,-1.241 -2.98,-8.193 -7.697,-11.545 -16.759,-11.917 v -16.51 C -18.248,-28.8 -7.076,-19.986 0,0"
               style="fill:#ffffff;fill-opacity:1;fill-rule:nonzero;stroke:none"
               id="path124" /></g></g></g></g></g></svg>
